<svg xmlns="http://www.w3.org/2000/svg" xmlns:xlink="http://www.w3.org/1999/xlink" id="Capa_1" x="0" y="0" version="1.1" viewBox="0 0 512 512" xml:space="preserve" style="enable-background:new 0 0 512 512"><g><g><path d="M7.64,122.484l34.821,199.078c138.386-43.145,266.609-50.029,427.078,0l34.776-198.814 C338.137,59.352,172.509,63.676,7.64,122.484z"/></g></g><g><g><path d="M59.526,71.155C56.71,55.007,41.455,43.987,24.808,46.809C8.54,49.702-2.429,65.163,0.463,81.57l1.928,10.933 c18.024-6.427,28.937-10.207,57.686-18.224L59.526,71.155z"/></g></g><g><g><path d="M106.036,334.888c-26.429,6.265-33.38,8.688-58.023,16.37l20.17,114.403l59.078-10.415L106.036,334.888z"/></g></g><g><g><path d="M487.22,46.824c-15.728-2.73-31.536,6.049-35.245,27.071c27.25,7.514,40.309,12.155,57.606,18.757l1.956-11.096 C514.429,65.18,503.463,49.692,487.22,46.824z"/></g></g><g><g><path d="M405.957,334.886l-21.22,120.36l59.078,10.415l20.171-114.407C439.19,343.523,432.336,341.132,405.957,334.886z"/></g></g></svg>