<?xml version="1.0" encoding="utf-8"?>
<!-- Generator: Adobe Illustrator 16.0.0, SVG Export Plug-In . SVG Version: 6.00 Build 0)  -->
<!DOCTYPE svg PUBLIC "-//W3C//DTD SVG 1.1//EN" "http://www.w3.org/Graphics/SVG/1.1/DTD/svg11.dtd">
<svg version="1.1" id="Layer_1" xmlns="http://www.w3.org/2000/svg" xmlns:xlink="http://www.w3.org/1999/xlink" x="0px" y="0px"
	 width="960px" height="560px" viewBox="0 0 960 560" enable-background="new 0 0 960 560" xml:space="preserve">
<g>
	<g>
		<path fill="#00909E" d="M496.224,227.39v0.011c0,0.053,0,0.246-0.021,0.557c-0.438,8.835-7.829,15.722-16.664,15.722h-12.113
			c-5.066,0-9.992,1.842-13.677,5.323c-0.054,0.043-0.097,0.086-0.16,0.139l6.199-14.467c0.654-1.525,1.26-3.07,1.845-4.623
			c2.835-7.529,6.513-11.605,9.769-13.807c4.254-2.876,9.747-2.949,14.263-0.502c2.418,1.311,4.469,3.063,6.105,4.771
			C493.675,222.517,495.143,224.862,496.224,227.39"/>
		<path fill="#00909E" d="M486.734,287.162c-0.524-0.3-1.07-0.557-1.639-0.771c-12.348-4.541-19.834,7.625-19.834,7.625
			c-1.071,1.874-2.41,3.28-3.815,4.335c-4.151,3.112-9.715,3.474-14.491,1.447c-0.262-0.112-0.519-0.226-0.769-0.342
			c-8.343-3.898-11.47-14.201-7.101-22.309l0.899-1.671c0,0,14.566-12.52,34.915,0.332
			C474.9,275.81,485.813,282.899,486.734,287.162"/>
		<linearGradient id="SVGID_1_" gradientUnits="userSpaceOnUse" x1="439.9863" y1="263.7368" x2="522.8848" y2="263.7368">
			<stop  offset="0.4" style="stop-color:#394B73"/>
			<stop  offset="1" style="stop-color:#838EA6"/>
			<stop  offset="1" style="stop-color:#F2F2F2"/>
		</linearGradient>
		<path fill="url(#SVGID_1_)" d="M522.174,289.615c-0.406,1.339-0.899,2.506-1.467,3.534c-3.331,6.019-10.721,8.386-17.157,6.019
			c-6.619-2.431-12.167-7.689-14.545-10.195c-0.675-0.707-1.435-1.317-2.271-1.811c-0.921-4.263-11.834-11.353-11.834-11.353
			c-20.349-12.852-34.914-0.332-34.914-0.332l11.099-20.618c0.169-0.313,0.323-0.634,0.463-0.961l2.028-4.746l0.012-0.011
			c0.063-0.054,0.106-0.096,0.16-0.139c3.685-3.48,8.61-5.323,13.677-5.323h12.113c8.835,0,16.226-6.887,16.664-15.723
			c0.021-0.31,0.021-0.503,0.021-0.557c0.278,0.632,0.524,1.285,0.75,1.938c3.224,9.414,17.425,35.236,23.434,45.968
			C522.838,279.665,523.588,284.827,522.174,289.615"/>
	</g>
	<text transform="matrix(1 0 0 1 343.4478 335.8438)"><tspan x="0" y="0" fill="#394B73" font-family="'NexaBold'" font-size="33">Animation</tspan><tspan x="169.716" y="0" fill="#00909E" font-family="'NexaBold'" font-size="33">Suites</tspan></text>
</g>
</svg>
