<svg xmlns="http://www.w3.org/2000/svg" xmlns:xlink="http://www.w3.org/1999/xlink" width="1920" height="1080" viewBox="0 0 1920 1080">
  <defs>
    <linearGradient id="linear-gradient" y1="0.473" x2="1" y2="0.5" gradientUnits="objectBoundingBox">
      <stop offset="0" stop-color="#a045fc"/>
      <stop offset="1" stop-color="#ab64f4"/>
    </linearGradient>
    <linearGradient id="linear-gradient-2" y1="0.5" x2="1" y2="0.5" gradientUnits="objectBoundingBox">
      <stop offset="0" stop-color="#007cff"/>
      <stop offset="1" stop-color="#6866e9"/>
    </linearGradient>
    <linearGradient id="linear-gradient-3" x1="0.023" y1="0.44" x2="1" y2="0.443" gradientUnits="objectBoundingBox">
      <stop offset="0" stop-color="#ff8733"/>
      <stop offset="1" stop-color="#ff8993"/>
    </linearGradient>
    <linearGradient id="linear-gradient-4" x1="0.023" y1="0.44" x2="1" y2="0.443" gradientUnits="objectBoundingBox">
      <stop offset="0" stop-color="#db04db"/>
      <stop offset="1" stop-color="#ff8993"/>
    </linearGradient>
    <filter id="Path_822" x="379" y="487" width="1116" height="432" filterUnits="userSpaceOnUse">
      <feOffset dy="3" input="SourceAlpha"/>
      <feGaussianBlur stdDeviation="3" result="blur"/>
      <feFlood flood-color="#9dceff" flood-opacity="0.161"/>
      <feComposite operator="in" in2="blur"/>
      <feComposite in="SourceGraphic"/>
    </filter>
    <filter id="Rectangle_117" x="1517" y="487" width="355" height="432" filterUnits="userSpaceOnUse">
      <feOffset dy="3" input="SourceAlpha"/>
      <feGaussianBlur stdDeviation="3" result="blur-2"/>
      <feFlood flood-color="#9dceff" flood-opacity="0.161"/>
      <feComposite operator="in" in2="blur-2"/>
      <feComposite in="SourceGraphic"/>
    </filter>
    <linearGradient id="linear-gradient-5" y1="0.5" x2="1" y2="0.5" gradientUnits="objectBoundingBox">
      <stop offset="0" stop-color="#602e95"/>
      <stop offset="0.187" stop-color="#602e95"/>
      <stop offset="0.4" stop-color="#602e95"/>
      <stop offset="1" stop-color="#c199e2"/>
      <stop offset="1" stop-color="#f2f2f2"/>
    </linearGradient>
    <filter id="Rectangle_33" x="1416.5" y="85.5" width="479" height="499" filterUnits="userSpaceOnUse">
      <feOffset dy="3" input="SourceAlpha"/>
      <feGaussianBlur stdDeviation="7.5" result="blur-3"/>
      <feFlood flood-opacity="0.282"/>
      <feComposite operator="in" in2="blur-3"/>
      <feComposite in="SourceGraphic"/>
    </filter>
    <clipPath id="clip-_01._Dashoard">
      <rect width="1920" height="1080"/>
    </clipPath>
  </defs>
  <g id="_01._Dashoard" data-name="01. Dashoard" clip-path="url(#clip-_01._Dashoard)">
    <rect width="1920" height="1080" fill="#f5f5f5"/>
    <g id="Group_244" data-name="Group 244">
      <rect id="Rectangle_11" data-name="Rectangle 11" width="1920" height="103" fill="#fff"/>
      <rect id="Rectangle_12" data-name="Rectangle 12" width="325" height="1080" fill="#fff"/>
      <rect id="Rectangle_4" data-name="Rectangle 4" width="337.332" height="282.612" rx="13" transform="translate(392.891 165)" fill="url(#linear-gradient)"/>
      <text id="Projects" transform="translate(428 270)" fill="#fff" font-size="20" font-family="Montserrat-SemiBold, Montserrat" font-weight="600"><tspan x="0" y="0">Projects</tspan></text>
      <text id="_3990" data-name="3990" transform="translate(428 315)" fill="#fff" font-size="34" font-family="Montserrat-SemiBold, Montserrat" font-weight="600"><tspan x="0" y="0">3990</tspan></text>
      <text id="Add_New_Project" data-name="Add New Project" transform="translate(428 394)" fill="#fff" font-size="13" font-family="Montserrat-SemiBold, Montserrat" font-weight="600"><tspan x="0" y="0">Add New Project</tspan></text>
      <rect id="Rectangle_5" data-name="Rectangle 5" width="337.332" height="282.612" rx="13" transform="translate(770.567 165)" fill="url(#linear-gradient-2)"/>
      <text id="Views" transform="translate(800 270)" fill="#fff" font-size="20" font-family="Montserrat-SemiBold, Montserrat" font-weight="600"><tspan x="0" y="0">Views</tspan></text>
      <text id="_2500k" data-name="2500k" transform="translate(800 315)" fill="#fff" font-size="34" font-family="Montserrat-SemiBold, Montserrat" font-weight="600"><tspan x="0" y="0">2500k</tspan></text>
      <text id="Increased_by_30_" data-name="Increased by 30%" transform="translate(800 394)" fill="#fff" font-size="13" font-family="Montserrat-SemiBold, Montserrat" font-weight="600"><tspan x="0" y="0">Increased by 30%</tspan></text>
      <rect id="Rectangle_6" data-name="Rectangle 6" width="337.332" height="282.612" rx="13" transform="translate(1148.244 165)" fill="url(#linear-gradient-3)"/>
      <text id="Clicks" transform="translate(1178 270)" fill="#fff" font-size="20" font-family="Montserrat-SemiBold, Montserrat" font-weight="600"><tspan x="0" y="0">Clicks</tspan></text>
      <text id="_250000" data-name="250000" transform="translate(1178 314)" fill="#fff" font-size="34" font-family="Montserrat-SemiBold, Montserrat" font-weight="600"><tspan x="0" y="0">250000</tspan></text>
      <text id="Increased_by_80_" data-name="Increased by 80%" transform="translate(1178 394)" fill="#fff" font-size="13" font-family="Montserrat-SemiBold, Montserrat" font-weight="600"><tspan x="0" y="0">Increased by 80%</tspan></text>
      <g id="Group_34" data-name="Group 34" transform="translate(135.883 12)">
        <g id="notification" transform="translate(1599.846 24)">
          <g id="Group_4" data-name="Group 4" transform="translate(0)">
            <g id="Group_3" data-name="Group 3" transform="translate(0)">
              <path id="Path_10" data-name="Path 10" d="M68.679,26.415l-2.24-3.735a11.093,11.093,0,0,1-1.582-5.708V13.7a9.146,9.146,0,0,0-6.524-8.749V2.61a2.61,2.61,0,0,0-5.22,0V4.952A9.146,9.146,0,0,0,46.589,13.7v3.271a11.1,11.1,0,0,1-1.58,5.706l-2.24,3.735a.654.654,0,0,0,.559.989H68.12a.652.652,0,0,0,.56-.988Z" transform="translate(-42.675)" fill="#bcbcbc"/>
            </g>
          </g>
          <g id="Group_6" data-name="Group 6" transform="translate(8.939 28.708)">
            <g id="Group_5" data-name="Group 5">
              <path id="Path_11" data-name="Path 11" d="M188.815,469.333a4.54,4.54,0,0,0,8.218,0Z" transform="translate(-188.815 -469.333)" fill="#bcbcbc"/>
            </g>
          </g>
        </g>
        <path id="Union_1" data-name="Union 1" d="M0,21.409a9.227,9.227,0,0,1,.524-.866c.292-.435.657-.92,1.082-1.443a7.1,7.1,0,0,1,1.577-1.412,9.509,9.509,0,0,1,1.65-.871,10.724,10.724,0,0,1,1.3-.441c.325-.087.525-.122.527-.122a3.82,3.82,0,0,1,1-.154,2.093,2.093,0,0,1,.387.034,7.781,7.781,0,0,0,1.134.832,8,8,0,0,0,1.289.627,8.172,8.172,0,0,0,1.416.4,8.392,8.392,0,0,0,1.516.138,8.07,8.07,0,0,0,5.3-1.948,1.446,1.446,0,0,1,.278-.089h.059a5.462,5.462,0,0,1,.91.092,9.611,9.611,0,0,1,1.832.526c.445.23.864.464,1.246.7s.713.453,1.026.682.579.443.831.668a8.6,8.6,0,0,1,.663.657,7.013,7.013,0,0,1,.927,1.29,7.917,7.917,0,0,1,.431.91c-1.924,4.844-7.2,8.322-13.418,8.322C7.2,29.932,1.856,26.357,0,21.409ZM5.325,8.044a8.141,8.141,0,0,1,16.281,0,8.141,8.141,0,0,1-16.281,0Z" transform="translate(1555.223 24.676)" fill="#bcbcbc"/>
        <path id="ic_help_48px" d="M17.523,4A13.523,13.523,0,1,0,31.047,17.523,13.52,13.52,0,0,0,17.523,4Zm1.352,22.99h-2.7v-2.7h2.7Zm2.793-10.474-1.21,1.244a4.571,4.571,0,0,0-1.582,3.82h-2.7V20.9a5.419,5.419,0,0,1,1.582-3.827l1.684-1.7a2.7,2.7,0,1,0-4.618-1.907h-2.7a5.409,5.409,0,0,1,10.819,0A4.292,4.292,0,0,1,21.668,16.516Z" transform="translate(1639.65 22.029)" fill="#bcbcbc"/>
        <path id="ic_navigate_next_48px" d="M1.342,11.384,0,10.042l4.35-4.35L0,1.342,1.342,0,7.034,5.692Z" transform="translate(1713.669 36.171) rotate(90)" fill="#bcbcbc"/>
      </g>
      <line id="Line_4" data-name="Line 4" y2="31" transform="translate(1641.5 36.5)" fill="none" stroke="#ccc" stroke-width="1"/>
      <rect id="Rectangle_105" data-name="Rectangle 105" width="394" height="44" rx="22" transform="translate(365 37)" fill="#f5f5f5"/>
      <text id="Find_recent_Pixels" data-name="Find recent Pixels" transform="translate(390 64)" fill="#848484" font-size="14" font-family="Rubik-Regular, Rubik"><tspan x="0" y="0">Find Recent Pixels</tspan></text>
      <path id="ic_search_48px" d="M21.2,19.375h-.967l-.334-.334a7.847,7.847,0,1,0-.857.863l.334.334V21.2l6.08,6.067,1.812-1.812Zm-7.3,0A5.472,5.472,0,1,1,19.375,13.9,5.472,5.472,0,0,1,13.9,19.375Z" transform="translate(707.091 42)" fill="#314962"/>
      <g id="Group_35" data-name="Group 35" transform="translate(1525.92 165)">
        <rect id="Rectangle_6-2" data-name="Rectangle 6" width="337.332" height="282.612" rx="13" fill="url(#linear-gradient-4)"/>
      </g>
      <rect id="Rectangle_106" data-name="Rectangle 106" width="88.952" height="83.584" rx="25" transform="matrix(1, 0.017, -0.017, 1, 977.525, 312.98)" fill="#fff" opacity="0.2"/>
      <path id="Path_786" data-name="Path 786" d="M46.05,12.845A24.791,24.791,0,0,0,25.232,1,24.791,24.791,0,0,0,4.414,12.845a2.66,2.66,0,0,0,0,2.85A24.791,24.791,0,0,0,25.232,27.54,24.791,24.791,0,0,0,46.05,15.7,2.66,2.66,0,0,0,46.05,12.845ZM25.232,19.578A5.308,5.308,0,1,1,30.54,14.27,5.307,5.307,0,0,1,25.232,19.578Z" transform="translate(996.273 341.398)" fill="#fff"/>
      <path id="Path_790" data-name="Path 790" d="M23.269,6.428A11.36,11.36,0,0,0,13.73,1,11.36,11.36,0,0,0,4.19,6.428a1.219,1.219,0,0,0,0,1.306,11.36,11.36,0,0,0,9.54,5.428,11.36,11.36,0,0,0,9.54-5.428A1.219,1.219,0,0,0,23.269,6.428ZM13.73,9.513a2.432,2.432,0,1,1,2.432-2.432A2.432,2.432,0,0,1,13.73,9.513Z" transform="translate(797.158 224.78)" fill="#fff"/>
      <rect id="Rectangle_107" data-name="Rectangle 107" width="88.952" height="83.584" rx="25" transform="matrix(1, 0.017, -0.017, 1, 617.022, 312.98)" fill="#fff" opacity="0.2"/>
      <path id="Path_789" data-name="Path 789" d="M394.316,273.486a3.245,3.245,0,0,0-3.129-2.273H381.82l-2.949-8.949A3.242,3.242,0,0,0,375.742,260h-.012a3.247,3.247,0,0,0-3.125,2.288l-2.864,8.926H360.3a3.293,3.293,0,0,0-1.931,5.962l7.64,5.52-2.941,8.93a3.317,3.317,0,0,0,3.129,4.334,3.3,3.3,0,0,0,1.931-.637l7.651-5.528,7.563,5.521a3.3,3.3,0,0,0,5.079-3.666l-2.868-8.953,7.574-5.528A3.242,3.242,0,0,0,394.316,273.486Z" transform="translate(284.657 77.5)" fill="#fff"/>
      <path id="Path_791" data-name="Path 791" d="M369.62,264.561a1.1,1.1,0,0,0-1.058-.769h-3.168l-1-3.027a1.1,1.1,0,0,0-1.058-.766h0a1.1,1.1,0,0,0-1.057.774l-.969,3.019h-3.193a1.114,1.114,0,0,0-.653,2.016l2.584,1.867-.995,3.02a1.122,1.122,0,0,0,1.058,1.466,1.116,1.116,0,0,0,.653-.216l2.588-1.87,2.558,1.867a1.114,1.114,0,0,0,1.718-1.24l-.97-3.028,2.562-1.87A1.1,1.1,0,0,0,369.62,264.561Z" transform="translate(72.966 -34.22)" fill="#fff"/>
      <rect id="Rectangle_108" data-name="Rectangle 108" width="88.952" height="83.584" rx="25" transform="matrix(1, 0.017, -0.017, 1, 1356.893, 312.98)" fill="#fff" opacity="0.2"/>
      <g id="Clicks-2" data-name="Clicks" transform="translate(1388.069 334.582)">
        <g id="Group_15" data-name="Group 15">
          <path id="Path_125" data-name="Path 125" d="M328.177,831.795a.961.961,0,0,0,.958.959H343.3a.961.961,0,0,0,.958-.959V829.6H328.177Z" transform="translate(-321.039 -789.846)" fill="#fff"/>
          <path id="Path_126" data-name="Path 126" d="M223.6,15.473l0-7.011a3,3,0,0,1,.867-2.132,3.471,3.471,0,0,1,2.454-.978,3.36,3.36,0,0,1,1.984.628,2.907,2.907,0,0,1,1.16,2.07c0,.019.379,3.675.719,6.948a8.046,8.046,0,1,0-7.188.474Z" transform="translate(-216.786)" fill="#fff"/>
          <path id="Path_127" data-name="Path 127" d="M204.953,159.436a2.152,2.152,0,0,0-1.49-2.051c-2.66-.867-8.026-2.6-8.846-2.76a4.012,4.012,0,0,0-.743-.072,2.374,2.374,0,0,0-1.552.479h0v0c0-.038-1.241-11.994-1.241-12.013a1.6,1.6,0,0,0-1.716-1.414,1.744,1.744,0,0,0-1.883,1.672l-.01,19.374a.459.459,0,0,1-.4.455h-.01a.272.272,0,0,1-.062,0h-.014a4.07,4.07,0,0,1-3.556-2.113c-.192-.273-.364-.522-.522-.752a2.186,2.186,0,0,0-1.792-1.021,1.924,1.924,0,0,0-1.854,2.377c.345,2.075,2.616,6.91,7.092,11.443h16.082l1.624-2.746a6.287,6.287,0,0,0,.886-3.22Z" transform="translate(-179.222 -134.815)" fill="#fff"/>
        </g>
      </g>
      <g id="Clicks-3" data-name="Clicks" transform="translate(1177.612 221.23)">
        <g id="Group_15-2" data-name="Group 15">
          <path id="Path_125-2" data-name="Path 125" d="M328.177,830.479a.385.385,0,0,0,.384.384h5.676a.385.385,0,0,0,.384-.384V829.6h-6.444Z" transform="translate(-325.317 -813.671)" fill="#fff"/>
          <path id="Path_126-2" data-name="Path 126" d="M220.651,6.2l0-2.809A1.2,1.2,0,0,1,221,2.536a1.391,1.391,0,0,1,.983-.392,1.346,1.346,0,0,1,.795.252,1.165,1.165,0,0,1,.465.829c0,.008.152,1.473.288,2.784a3.224,3.224,0,1,0-2.88.19Z" transform="translate(-217.919)" fill="#fff"/>
          <path id="Path_127-2" data-name="Path 127" d="M189.532,148.746a.862.862,0,0,0-.6-.822c-1.066-.348-3.216-1.041-3.544-1.106a1.608,1.608,0,0,0-.3-.029.951.951,0,0,0-.622.192h0v0c0-.015-.5-4.806-.5-4.814a.641.641,0,0,0-.687-.566.7.7,0,0,0-.755.67l0,7.763a.184.184,0,0,1-.159.182h0a.109.109,0,0,1-.025,0h-.006a1.631,1.631,0,0,1-1.425-.847c-.077-.109-.146-.209-.209-.3a.876.876,0,0,0-.718-.409.771.771,0,0,0-.743.952,10.493,10.493,0,0,0,2.842,4.585h6.444l.651-1.1a2.519,2.519,0,0,0,.355-1.29Z" transform="translate(-179.222 -138.881)" fill="#fff"/>
        </g>
      </g>
      <rect id="Rectangle_109" data-name="Rectangle 109" width="54.579" height="51.285" rx="12" transform="matrix(1, 0.017, -0.017, 1, 1781.441, 371.858)" fill="#fff" opacity="0.2"/>
      <g id="_2921071" data-name="2921071" transform="translate(1799.366 389.392)">
        <path id="Path_792" data-name="Path 792" d="M10.07,4.414H5.288A1.289,1.289,0,0,1,4,3.127v-1.1a.552.552,0,0,1,.552-.552h1.18a2.024,2.024,0,0,1,3.894,0h1.18a.552.552,0,0,1,.552.552v1.1A1.289,1.289,0,0,1,10.07,4.414Z" transform="translate(-1.057)" fill="#fff"/>
        <path id="Path_793" data-name="Path 793" d="M21.471,17.036a.368.368,0,0,1-.329-.2l-.948-1.9A1.847,1.847,0,0,1,20,14.114V7.471a1.471,1.471,0,1,1,2.943,0v6.642a1.847,1.847,0,0,1-.194.823l-.948,1.9A.368.368,0,0,1,21.471,17.036Zm.948-2.265h.007Z" transform="translate(-5.285 -1.586)" fill="#fff"/>
        <path id="Path_794" data-name="Path 794" d="M11.22,3h-.184v.92A2.025,2.025,0,0,1,9.013,5.943H4.231A2.025,2.025,0,0,1,2.207,3.92V3H2.023A2.025,2.025,0,0,0,0,5.023v11.4a2.025,2.025,0,0,0,2.023,2.023h9.2a2.025,2.025,0,0,0,2.023-2.023V5.023A2.025,2.025,0,0,0,11.22,3Zm-.736,13.243H2.759a.552.552,0,0,1,0-1.1h7.725a.552.552,0,0,1,0,1.1Zm0-2.207H2.759a.552.552,0,0,1,0-1.1h7.725a.552.552,0,0,1,0,1.1Zm0-2.207H2.759a.552.552,0,0,1,0-1.1h7.725a.552.552,0,0,1,0,1.1Zm0-2.207H2.759a.552.552,0,0,1,0-1.1h7.725a.552.552,0,0,1,0,1.1Z" transform="translate(0 -0.793)" fill="#fff"/>
      </g>
      <g id="Group_37" data-name="Group 37" transform="translate(1554.883 191.199)" opacity="0.404">
        <rect id="Rectangle_110" data-name="Rectangle 110" width="225" height="25" rx="12.5" transform="translate(0.117 -0.199)" fill="#fff"/>
        <rect id="Rectangle_111" data-name="Rectangle 111" width="257" height="25" rx="12.5" transform="translate(0.117 40.801)" fill="#fff"/>
        <rect id="Rectangle_112" data-name="Rectangle 112" width="244" height="25" rx="12.5" transform="translate(0.117 81.801)" fill="#fff"/>
        <rect id="Rectangle_113" data-name="Rectangle 113" width="281" height="25" rx="12.5" transform="translate(0.117 122.801)" fill="#fff"/>
        <rect id="Rectangle_114" data-name="Rectangle 114" width="204" height="25" rx="12.5" transform="translate(0.117 163.801)" fill="#fff"/>
      </g>
      <text id="Activity_Log" data-name="Activity Log" transform="translate(1555 403)" fill="#fff" font-size="13" font-family="Montserrat-SemiBold, Montserrat" font-weight="600"><tspan x="0" y="0">Activity Log</tspan></text>
      <g id="Group_40" data-name="Group 40" transform="translate(-2137 123)">
        <g id="Group_39" data-name="Group 39" transform="translate(3550 -99)">
          <rect id="Rectangle_115" data-name="Rectangle 115" width="179" height="56" rx="28" fill="#f5f5f5" opacity="0.799"/>
        </g>
        <g id="Group_38" data-name="Group 38" transform="translate(3563.524 -87.862)">
          <circle id="Ellipse_45" data-name="Ellipse 45" cx="16.5" cy="16.5" r="16.5" transform="translate(0.476 -0.138)" fill="#c4c4c4"/>
          <path id="Union_10" data-name="Union 10" d="M0,17.92A7.721,7.721,0,0,1,.439,17.2c.245-.364.551-.77.907-1.208a5.945,5.945,0,0,1,1.322-1.182,7.977,7.977,0,0,1,1.383-.729,9,9,0,0,1,1.09-.369c.272-.073.44-.1.442-.1a3.208,3.208,0,0,1,.842-.129,1.758,1.758,0,0,1,.325.028,6.523,6.523,0,0,0,.95.7,6.71,6.71,0,0,0,1.081.525,6.86,6.86,0,0,0,1.188.331,7.047,7.047,0,0,0,1.271.115,6.773,6.773,0,0,0,4.448-1.63,1.213,1.213,0,0,1,.233-.074h.05a4.587,4.587,0,0,1,.763.077,8.068,8.068,0,0,1,1.536.441c.373.192.724.389,1.045.584s.6.379.86.571.485.371.7.56a7.209,7.209,0,0,1,.556.55,5.87,5.87,0,0,1,.777,1.08,6.622,6.622,0,0,1,.362.762c-1.613,4.054-6.041,6.966-11.251,6.966C6.034,25.055,1.556,22.063,0,17.92ZM4.465,6.733a6.826,6.826,0,0,1,13.651,0,6.826,6.826,0,0,1-13.651,0Z" transform="translate(5.363 3.56)" fill="#fff"/>
        </g>
        <text id="Workspace_ArtCultureBMC" data-name="Workspace
ArtCultureBMC" transform="translate(3604 -74)" fill="#535353" font-size="10" font-family="Rubik-Regular, Rubik"><tspan x="0" y="0">Workspace</tspan><tspan x="0" y="12">Artculturebmc</tspan></text>
      </g>
      <rect id="Rectangle_116" data-name="Rectangle 116" width="325" height="62" transform="translate(0 139)" fill="#602e95" opacity="0.1"/>
      <g id="Group_62" data-name="Group 62" transform="translate(3)">
        <text id="Dashboard_Create_Banner_View_Banners_A_B_Testing_Pixels_BG_Remover_Agency_Bonus_Settings" data-name="Dashboard
Create Banner
View Banners
A/B Testing
Pixels
BG Remover
Agency
Bonus
Settings" transform="translate(101 176)" fill="#602e95" font-size="18" font-family="Montserrat-SemiBold, Montserrat" font-weight="600"><tspan x="0" y="0">Dashboard</tspan><tspan font-family="Montserrat-Medium, Montserrat" font-weight="500"><tspan x="0" y="60">Create Banner</tspan><tspan x="0" y="120">View Banners</tspan><tspan x="0" y="180">A/B Testing</tspan><tspan x="0" y="240">Pixels</tspan><tspan x="0" y="300">BG Remover</tspan><tspan x="0" y="360">Agency</tspan><tspan x="0" y="420">Bonus</tspan><tspan x="0" y="480">Settings</tspan></tspan></text>
        <g id="dashboard" transform="translate(54 162.044)">
          <path id="Path_795" data-name="Path 795" d="M5.889,0H1.114A1.115,1.115,0,0,0,0,1.114V3.979A1.115,1.115,0,0,0,1.114,5.093H5.889A1.115,1.115,0,0,0,7,3.979V1.114A1.115,1.115,0,0,0,5.889,0Zm0,0" fill="#602e95"/>
          <path id="Path_796" data-name="Path 796" d="M5.889,213.332H1.114A1.115,1.115,0,0,0,0,214.446v6.685a1.115,1.115,0,0,0,1.114,1.114H5.889A1.115,1.115,0,0,0,7,221.131v-6.685A1.115,1.115,0,0,0,5.889,213.332Zm0,0" transform="translate(0 -206.966)" fill="#602e95"/>
          <path id="Path_797" data-name="Path 797" d="M283.221,341.332h-4.775a1.115,1.115,0,0,0-1.114,1.114v2.865a1.115,1.115,0,0,0,1.114,1.114h4.775a1.115,1.115,0,0,0,1.114-1.114v-2.865A1.115,1.115,0,0,0,283.221,341.332Zm0,0" transform="translate(-269.056 -331.146)" fill="#602e95"/>
          <path id="Path_798" data-name="Path 798" d="M283.221,0h-4.775a1.115,1.115,0,0,0-1.114,1.114V7.8a1.115,1.115,0,0,0,1.114,1.114h4.775A1.115,1.115,0,0,0,284.335,7.8V1.114A1.115,1.115,0,0,0,283.221,0Zm0,0" transform="translate(-269.056)" fill="#602e95"/>
        </g>
        <g id="gear" transform="translate(54 643.479)">
          <g id="Group_42" data-name="Group 42" transform="translate(0)">
            <path id="Path_799" data-name="Path 799" d="M14.94,6.345l-1.788-.439a5.766,5.766,0,0,0-.376-.913l.913-1.522a.445.445,0,0,0-.063-.546L12.355,1.653a.445.445,0,0,0-.546-.063L10.287,2.5a5.766,5.766,0,0,0-.913-.376L8.944.34A.459.459,0,0,0,8.505,0H6.715a.459.459,0,0,0-.439.34l-.43,1.788a5.766,5.766,0,0,0-.913.376L3.411,1.591a.445.445,0,0,0-.546.063L1.594,2.925a.445.445,0,0,0-.063.546l.913,1.522a5.766,5.766,0,0,0-.376.913L.34,6.345a.441.441,0,0,0-.34.43V8.565a.441.441,0,0,0,.34.43l1.728.439a5.766,5.766,0,0,0,.376.913l-.913,1.522a.445.445,0,0,0,.063.546l1.271,1.271a.445.445,0,0,0,.546.063l1.522-.913a5.766,5.766,0,0,0,.913.376l.43,1.728a.459.459,0,0,0,.439.34H8.505a.459.459,0,0,0,.439-.34l.43-1.728a5.766,5.766,0,0,0,.913-.376l1.522.913a.445.445,0,0,0,.546-.063l1.271-1.271a.445.445,0,0,0,.063-.546l-.913-1.522a5.766,5.766,0,0,0,.376-.913l1.788-.439a.441.441,0,0,0,.34-.43V6.774A.441.441,0,0,0,14.94,6.345ZM7.61,9.908A2.238,2.238,0,1,1,9.848,7.67,2.239,2.239,0,0,1,7.61,9.908Z" fill="#602e95"/>
          </g>
        </g>
        <g id="gift" transform="translate(54 581.757)">
          <path id="Path_800" data-name="Path 800" d="M13.907,2.638H10.443A1.671,1.671,0,0,0,7.891.5,1.334,1.334,0,0,0,7.64.86,1.335,1.335,0,0,0,7.389.5,1.671,1.671,0,0,0,4.836,2.638H1.373A1.373,1.373,0,0,0,0,4.011V5.085A1.373,1.373,0,0,0,1.373,6.458H6.058a.149.149,0,0,0,.149-.149V3.39c.117.027.246.052.387.077.207.036.4.063.568.082v2.76a.149.149,0,0,0,.149.149h.657a.149.149,0,0,0,.149-.149V3.549c.164-.019.361-.046.568-.082.142-.025.27-.05.387-.077V6.309a.149.149,0,0,0,.149.149h4.685A1.373,1.373,0,0,0,15.28,5.085V4.011A1.373,1.373,0,0,0,13.907,2.638ZM6.758,2.526C5.91,2.378,5.72,2.209,5.7,2.19A.716.716,0,0,1,6.714,1.177c.019.019.188.208.335,1.05.021.123.039.242.054.352-.108-.015-.225-.032-.345-.053Zm1.771,0c-.123.021-.242.039-.352.054.015-.108.032-.225.053-.345.147-.848.317-1.038.336-1.057A.716.716,0,1,1,9.579,2.19C9.56,2.208,9.371,2.377,8.529,2.525Z" transform="translate(0 -0.013)" fill="#602e95"/>
          <path id="Path_801" data-name="Path 801" d="M240,248.136v7.58a.149.149,0,0,0,.149.149h.657a.149.149,0,0,0,.149-.149v-7.58a.149.149,0,0,0-.149-.149h-.657A.149.149,0,0,0,240,248.136Z" transform="translate(-232.838 -240.587)" fill="#602e95"/>
          <path id="Path_802" data-name="Path 802" d="M37.1,247.987H32.477a.477.477,0,0,0-.477.477v6.028a1.373,1.373,0,0,0,1.373,1.373H37.1a.149.149,0,0,0,.149-.149v-7.58A.149.149,0,0,0,37.1,247.987Z" transform="translate(-31.045 -240.587)" fill="#602e95"/>
          <path id="Path_803" data-name="Path 803" d="M308.775,247.987h-4.626a.149.149,0,0,0-.149.149v7.58a.149.149,0,0,0,.149.149h3.73a1.373,1.373,0,0,0,1.373-1.373v-6.028A.477.477,0,0,0,308.775,247.987Z" transform="translate(-294.928 -240.587)" fill="#602e95"/>
        </g>
        <g id="photo" transform="translate(52 460.372)">
          <path id="Path_807" data-name="Path 807" d="M4.718,156.353a2.827,2.827,0,0,1-2.674-1.926l-.026-.087a2.756,2.756,0,0,1-.131-.818v-5.147L.056,154.489a1.715,1.715,0,0,0,1.2,2.08l11.674,3.126a1.732,1.732,0,0,0,.435.056A1.683,1.683,0,0,0,15,158.516l.68-2.163Zm0,0" transform="translate(0 -143.142)" fill="#602e95"/>
          <path id="Path_808" data-name="Path 808" d="M150.83,67.512A1.51,1.51,0,1,0,149.32,66,1.511,1.511,0,0,0,150.83,67.512Zm0,0" transform="translate(-144.036 -62.227)" fill="#602e95"/>
          <path id="Path_809" data-name="Path 809" d="M98.532.492H87.208A1.89,1.89,0,0,0,85.32,2.38v8.3a1.89,1.89,0,0,0,1.887,1.887H98.532a1.89,1.89,0,0,0,1.887-1.887V2.38A1.89,1.89,0,0,0,98.532.492ZM87.208,2H98.532a.378.378,0,0,1,.378.378V7.739L96.525,4.956a1.352,1.352,0,0,0-1.012-.464,1.32,1.32,0,0,0-1.009.476L91.7,8.334l-.913-.911a1.325,1.325,0,0,0-1.872,0L86.83,9.506V2.38A.378.378,0,0,1,87.208,2Zm0,0" transform="translate(-82.301 -0.492)" fill="#602e95"/>
        </g>
        <g id="banner" transform="translate(52 284.619)">
          <g id="Group_44" data-name="Group 44" transform="translate(0.27 1.077)">
            <g id="Group_43" data-name="Group 43" transform="translate(0 0)">
              <path id="Path_813" data-name="Path 813" d="M7.64,78.394l1.232,7.045a23.677,23.677,0,0,1,15.113,0L25.216,78.4A24.623,24.623,0,0,0,7.64,78.394Z" transform="translate(-7.64 -76.777)" fill="#602e95"/>
            </g>
          </g>
          <g id="Group_46" data-name="Group 46" transform="translate(0 0.001)">
            <g id="Group_45" data-name="Group 45" transform="translate(0 0)">
              <path id="Path_814" data-name="Path 814" d="M2.107,47.245a1.061,1.061,0,1,0-2.09.369L.085,48c.638-.227,1.024-.361,2.041-.645Z" transform="translate(0 -46.368)" fill="#602e95"/>
            </g>
          </g>
          <g id="Group_50" data-name="Group 50" transform="translate(15.994 0)">
            <g id="Group_49" data-name="Group 49">
              <path id="Path_816" data-name="Path 816" d="M453.222,46.357a1.06,1.06,0,0,0-1.247.958,19.28,19.28,0,0,1,2.039.664l.069-.393A1.061,1.061,0,0,0,453.222,46.357Z" transform="translate(-451.975 -46.34)" fill="#602e95"/>
            </g>
          </g>
        </g>
        <g id="work" transform="translate(52 520.291)">
          <path id="Path_817" data-name="Path 817" d="M13.285,5.4a.755.755,0,0,1-.755-.755V3.51H9.51V4.642a.755.755,0,0,1-1.51,0V3.51A1.511,1.511,0,0,1,9.51,2h3.02a1.511,1.511,0,0,1,1.51,1.51V4.642A.755.755,0,0,1,13.285,5.4Z" transform="translate(-1.961 -2)" fill="#602e95"/>
          <path id="Path_818" data-name="Path 818" d="M9.6,14.459a1.555,1.555,0,0,1-.536.091,1.654,1.654,0,0,1-.581-.106L0,11.62v5.76a2.075,2.075,0,0,0,2.076,2.076H16.042a2.075,2.075,0,0,0,2.076-2.076V11.62Z" transform="translate(0 -4.358)" fill="#602e95"/>
          <path id="Path_819" data-name="Path 819" d="M18.118,7.076V8.8L9.24,11.764a.559.559,0,0,1-.362,0L0,8.8V7.076A2.075,2.075,0,0,1,2.076,5H16.042A2.075,2.075,0,0,1,18.118,7.076Z" transform="translate(0 -2.735)" fill="#602e95"/>
        </g>
        <g id="dashboard-2" data-name="dashboard" transform="translate(54 340.944)">
          <path id="Path_796-2" data-name="Path 796" d="M5.889,213.332H1.114c-.614,0-1.114.857-1.114,1.91V226.7c0,1.053.5,1.91,1.114,1.91H5.889c.614,0,1.114-.857,1.114-1.91v-11.46C7,214.189,6.5,213.332,5.889,213.332Zm0,0" transform="translate(0 -213.332)" fill="#602e95"/>
          <path id="Path_798-2" data-name="Path 798" d="M283.221,0h-4.775c-.614,0-1.114.857-1.114,1.91V13.37c0,1.053.5,1.91,1.114,1.91h4.775c.614,0,1.114-.857,1.114-1.91V1.91C284.335.857,283.836,0,283.221,0Zm0,0" transform="translate(-269.056 -4)" fill="#602e95"/>
        </g>
        <g id="statistics" transform="translate(45 399.557)">
          <g id="Group_60" data-name="Group 60" transform="translate(0 0)">
            <g id="Group_59" data-name="Group 59" transform="translate(0 0)">
              <path id="Path_820" data-name="Path 820" d="M31.519,35.846A3,3,0,0,0,26.385,38.7l-3.625,2.571a3.018,3.018,0,0,0-5.036,3.155l-3.383,2.852a3.016,3.016,0,0,0-5.461.736l-2.867-1.16a3.014,3.014,0,1,0-.091,1.274l2.867,1.16a3.022,3.022,0,0,0,5.992-.789l3.625-3.056a3.02,3.02,0,0,0,4.983-3.125l3.587-2.548a3,3,0,1,0,4.543-3.921Z" transform="translate(0 -34.807)" fill="#602e95"/>
            </g>
          </g>
        </g>
        <g id="add" transform="translate(54 222.349)">
          <g id="Group_61" data-name="Group 61">
            <path id="Path_821" data-name="Path 821" d="M12.551,0H2.729A2.732,2.732,0,0,0,0,2.729v9.823A2.732,2.732,0,0,0,2.729,15.28h9.823a2.732,2.732,0,0,0,2.729-2.729V2.729A2.732,2.732,0,0,0,12.551,0ZM10.368,8.186H8.186v2.183a.546.546,0,0,1-1.091,0V8.186H4.911a.546.546,0,1,1,0-1.091H7.094V4.911a.546.546,0,1,1,1.091,0V7.094h2.183a.546.546,0,1,1,0,1.091Z" fill="#602e95"/>
          </g>
        </g>
      </g>
      <g transform="matrix(1, 0, 0, 1, 0, 0)" filter="url(#Path_822)">
        <path id="Path_822-2" data-name="Path 822" d="M20,0H1078a20,20,0,0,1,20,20V394a20,20,0,0,1-20,20H20A20,20,0,0,1,0,394V20A20,20,0,0,1,20,0Z" transform="translate(388 493)" fill="#e2e2e2"/>
      </g>
      <text id="More_tutorial_videos" data-name="More tutorial videos" transform="translate(388 959)" fill="#707070" font-size="24" font-family="Montserrat-SemiBold, Montserrat" font-weight="600"><tspan x="0" y="0">More tutorial videos</tspan></text>
      <g transform="matrix(1, 0, 0, 1, 0, 0)" filter="url(#Rectangle_117)">
        <rect id="Rectangle_117-2" data-name="Rectangle 117" width="337" height="414" rx="20" transform="translate(1526 493)" fill="#fff"/>
      </g>
      <rect id="Rectangle_118" data-name="Rectangle 118" width="291" height="33" rx="12" transform="translate(1545 522)" fill="#f5f5f5"/>
      <rect id="Rectangle_119" data-name="Rectangle 119" width="291" height="32" rx="12" transform="translate(1545 569)" fill="#f5f5f5"/>
      <rect id="Rectangle_120" data-name="Rectangle 120" width="291" height="33" rx="12" transform="translate(1545 615)" fill="#f5f5f5"/>
      <rect id="Rectangle_121" data-name="Rectangle 121" width="291" height="32" rx="12" transform="translate(1545 662)" fill="#f5f5f5"/>
      <rect id="Rectangle_122" data-name="Rectangle 122" width="291" height="33" rx="12" transform="translate(1545 708)" fill="#f5f5f5"/>
      <rect id="Rectangle_123" data-name="Rectangle 123" width="291" height="33" rx="12" transform="translate(1545 755)" fill="#f5f5f5"/>
      <rect id="Rectangle_124" data-name="Rectangle 124" width="291" height="33" rx="12" transform="translate(1545 801)" fill="#f5f5f5"/>
      <rect id="Rectangle_125" data-name="Rectangle 125" width="291" height="33" rx="12" transform="translate(1545 848)" fill="#f5f5f5"/>
      <text id="Road_Map" data-name="Road Map" transform="translate(1567 544)" fill="#7c7c7c" font-size="13" font-family="Montserrat-SemiBold, Montserrat" font-weight="600"><tspan x="0" y="0">Road Map</tspan></text>
      <g id="Play" transform="translate(873.27 665)" opacity="0.272">
        <path id="Path_810" data-name="Path 810" d="M73.832,30.04,27.251.691c-1.377-.82-3.087-.683-4.378-.683-5.166,0-5.143,3.988-5.143,5V64.992c0,.854-.023,5,5.143,5,1.291,0,3,.136,4.378-.684l46.58-29.348C77.655,37.684,76.994,35,76.994,35S77.655,32.315,73.832,30.04Z" transform="translate(0 0)" fill-rule="evenodd"/>
      </g>
      <g id="Group_231" data-name="Group 231">
        <g id="Group_41" data-name="Group 41" transform="translate(-29 -5)">
          <text id="ClickZign" transform="translate(128 63)" fill="#292929" font-size="18" font-family="Montserrat-SemiBold, Montserrat" font-weight="600"><tspan x="0" y="0">ClickZign</tspan></text>
        </g>
        <g id="Group_230" data-name="Group 230" transform="translate(-381.448 -177.905)">
          <path id="Path_828" data-name="Path 828" d="M470.2,219.213v0c0,.021,0,.1-.008.217a6.485,6.485,0,0,1-6.494,6.127h-4.721a7.745,7.745,0,0,0-5.33,2.074c-.021.017-.038.034-.062.054L456,222.053c.255-.594.491-1.2.719-1.8a10.771,10.771,0,0,1,3.807-5.381,5.355,5.355,0,0,1,5.559-.2,9.863,9.863,0,0,1,2.379,1.859,9,9,0,0,1,1.736,2.68" transform="translate(-10.054)" fill="#d8c4e8"/>
          <path id="Path_829" data-name="Path 829" d="M456.452,276.694a4.4,4.4,0,0,0-.639-.3c-4.812-1.77-7.73,2.972-7.73,2.972a5.514,5.514,0,0,1-1.487,1.689,5.7,5.7,0,0,1-5.647.564c-.1-.044-.2-.088-.3-.133a6.3,6.3,0,0,1-2.767-8.694l.35-.651s5.677-4.879,13.607.129c0,0,4.253,2.763,4.612,4.425" transform="translate(0 -34.186)" fill="#d9c6e8"/>
          <path id="Path_830" data-name="Path 830" d="M472.016,251.646a7.08,7.08,0,0,1-.572,1.377,5.456,5.456,0,0,1-6.686,2.346,16.269,16.269,0,0,1-5.668-3.973,4.126,4.126,0,0,0-.885-.706c-.359-1.661-4.612-4.424-4.612-4.424-7.93-5.009-13.607-.129-13.607-.129l4.325-8.035q.1-.183.18-.375l.79-1.85,0,0c.025-.021.041-.037.062-.054a7.747,7.747,0,0,1,5.33-2.074H455.4a6.485,6.485,0,0,0,6.494-6.128c.008-.121.008-.2.008-.217.108.246.2.5.292.755,1.256,3.669,6.791,13.732,9.133,17.915a7.264,7.264,0,0,1,.689,5.577" transform="translate(-1.752 -8.182)" fill="url(#linear-gradient-5)"/>
        </g>
      </g>
    </g>
    <g id="Group_254" data-name="Group 254" transform="translate(-2741 -5555)">
      <g transform="matrix(1, 0, 0, 1, 2741, 5555)" filter="url(#Rectangle_33)">
        <rect id="Rectangle_33-2" data-name="Rectangle 33" width="434" height="454" rx="16" transform="translate(1439 105)" fill="#fff"/>
      </g>
      <path id="Rectangle_34" data-name="Rectangle 34" d="M27,0H407a27,27,0,0,1,27,27V163a0,0,0,0,1,0,0H0a0,0,0,0,1,0,0V27A27,27,0,0,1,27,0Z" transform="translate(4180 5660)" fill="#f9f9f9"/>
      <g id="Group_33" data-name="Group 33" transform="translate(1656 5998)">
        <ellipse id="Ellipse_45-2" data-name="Ellipse 45" cx="42.5" cy="42" rx="42.5" ry="42" transform="translate(2554 -298)" fill="#c4c4c4"/>
        <path id="Union_10-2" data-name="Union 10" d="M0,46.333a19.963,19.963,0,0,1,1.136-1.873c.634-.94,1.423-1.992,2.346-3.124A15.372,15.372,0,0,1,6.9,38.279a20.625,20.625,0,0,1,3.577-1.885,23.276,23.276,0,0,1,2.819-.953c.7-.188,1.139-.263,1.143-.264a8.293,8.293,0,0,1,2.177-.332,4.545,4.545,0,0,1,.84.073,16.866,16.866,0,0,0,2.457,1.8,17.347,17.347,0,0,0,2.794,1.356,17.737,17.737,0,0,0,3.07.855,18.22,18.22,0,0,0,3.285.3,17.512,17.512,0,0,0,11.5-4.215,3.138,3.138,0,0,1,.6-.192s.044,0,.129,0a11.859,11.859,0,0,1,1.972.2,20.86,20.86,0,0,1,3.972,1.139c.964.5,1.873,1.005,2.7,1.509.8.485,1.545.981,2.223,1.475.649.473,1.255.96,1.8,1.447A18.637,18.637,0,0,1,55.4,42.009,15.177,15.177,0,0,1,57.409,44.8a17.121,17.121,0,0,1,.935,1.969c-4.17,10.482-15.619,18.01-29.088,18.01C15.6,64.779,4.022,57.042,0,46.333ZM11.544,17.409a17.649,17.649,0,0,1,35.294,0,17.649,17.649,0,0,1-35.294,0Z" transform="translate(2566.919 -288.797)" fill="#fff"/>
      </g>
      <text id="Ejem_Austin" data-name="Ejem Austin" transform="translate(4312 5744)" fill="#797979" font-size="25" font-family="Rubik-Regular, Rubik"><tspan x="0" y="0">Ejem Austin</tspan></text>
      <text id="Account_settings_and_more" data-name="Account settings and more" transform="translate(4312 5765)" fill="#535353" font-size="15" font-family="Rubik-Regular, Rubik"><tspan x="0" y="0">Account settings and more</tspan></text>
      <text id="Contact_support_" data-name="Contact support " transform="translate(4269 5903)" fill="#797979" font-size="18" font-family="Rubik-Regular, Rubik" opacity="0.495"><tspan x="0" y="0">Contact Support </tspan></text>
      <text id="Support" transform="translate(4269 5879)" fill="#797979" font-size="22" font-family="Rubik-Regular, Rubik"><tspan x="0" y="0">Support</tspan></text>
      <text id="Everything_explained_here" data-name="Everything explained here" transform="translate(4269 5985)" fill="#797979" font-size="18" font-family="Rubik-Regular, Rubik" opacity="0.495"><tspan x="0" y="0">Everything explained here</tspan></text>
      <text id="Knowledge_Base" data-name="Knowledge Base" transform="translate(4269 5961)" fill="#797979" font-size="22" font-family="Rubik-Regular, Rubik"><tspan x="0" y="0">Knowledge Base</tspan></text>
      <path id="ic_exit_to_app_48px" d="M15.026,22.033l1.8,1.8,6.37-6.37-6.37-6.37-1.8,1.8,3.293,3.293H6V18.74H18.32ZM26.384,6H8.548A2.547,2.547,0,0,0,6,8.548v5.1H8.548v-5.1H26.384V26.384H8.548v-5.1H6v5.1a2.547,2.547,0,0,0,2.548,2.548H26.384a2.547,2.547,0,0,0,2.548-2.548V8.548A2.547,2.547,0,0,0,26.384,6Z" transform="translate(4210.661 6025)" fill="#797979"/>
      <text id="Log_ME_OUT" data-name="Log ME OUT" transform="translate(4269 6050)" fill="#797979" font-size="22" font-family="Rubik-Regular, Rubik"><tspan x="0" y="0">Log Me Out</tspan></text>
      <g id="company" transform="translate(4156.732 5872.628)">
        <path id="Union_12" data-name="Union 12" d="M12.37,23.373V20.121A2.521,2.521,0,0,0,9.852,17.6h-2.2a2.521,2.521,0,0,0-2.518,2.518v3.252H.684A.685.685,0,0,1,0,22.687V5.452A2.521,2.521,0,0,1,2.518,2.934H14.986A2.521,2.521,0,0,1,17.5,5.452V22.687a.685.685,0,0,1-.684.685Zm.3-8.5a.682.682,0,1,0,.484-.2A.688.688,0,0,0,12.669,14.869Zm-2.934,0a.684.684,0,1,0,.484-.2A.689.689,0,0,0,9.735,14.869Zm-2.933,0a.682.682,0,1,0,.484-.2A.686.686,0,0,0,6.8,14.869Zm-2.933,0a.684.684,0,0,0,.968.968.685.685,0,0,0-.485-1.169A.685.685,0,0,0,3.868,14.869Zm8.8-2.934a.685.685,0,1,0,.484-.2A.69.69,0,0,0,12.669,11.935Zm-2.934,0a.685.685,0,1,0,.969.968.685.685,0,0,0,0-.968.687.687,0,0,0-.969,0Zm-2.933,0a.685.685,0,1,0,.484-.2A.69.69,0,0,0,6.8,11.935Zm-2.933,0a.684.684,0,1,0,1.168.484.684.684,0,0,0-1.168-.484ZM12.669,9a.682.682,0,1,0,.484-.2A.686.686,0,0,0,12.669,9ZM9.735,9a.684.684,0,1,0,.485-.2A.689.689,0,0,0,9.735,9ZM6.8,9a.682.682,0,1,0,.484-.2A.686.686,0,0,0,6.8,9ZM3.868,9a.685.685,0,0,0,.483,1.169A.685.685,0,1,0,3.868,9Zm8.8-2.934a.685.685,0,1,0,.484-.2A.69.69,0,0,0,12.669,6.068Zm-2.934,0a.687.687,0,1,0,.485-.2A.693.693,0,0,0,9.735,6.068Zm-2.933,0a.685.685,0,1,0,.484-.2A.69.69,0,0,0,6.8,6.068Zm-2.934,0a.687.687,0,1,0,.484-.2A.689.689,0,0,0,3.867,6.068Zm5.57,17.3v-4.4h.415A1.15,1.15,0,0,1,11,20.121v3.252Zm-2.934,0V20.121a1.15,1.15,0,0,1,1.149-1.149h.416v4.4ZM3.122,1.564A2.522,2.522,0,0,1,5.451,0h6.6a2.525,2.525,0,0,1,2.33,1.564Z" transform="translate(64.267 0)" fill="#c4c4c4"/>
      </g>
      <path id="Union_14" data-name="Union 14" d="M-2374.333-165.649a.85.85,0,0,1-.844-.856v-1.713c0-2.44,1.089-4.28,2.532-4.28s2.532,1.84,2.532,4.28v1.713a.85.85,0,0,1-.844.856Zm1.688-8.562a3.39,3.39,0,0,0-.843.111v-9.363l-10.673,4.061a.834.834,0,0,1-.594,0l-13.557-5.136a.862.862,0,0,1,0-1.6l13.557-5.137a.844.844,0,0,1,.594,0l13.557,5.137a.862.862,0,0,1,0,1.6l-1.2.434v10A3.4,3.4,0,0,0-2372.646-174.21Zm-12.339-.186a7.185,7.185,0,0,0-3.694-1.525,12.187,12.187,0,0,0-3.907.795.846.846,0,0,1-1.156-.795,16.493,16.493,0,0,1,.554-4.858l7.844,2.984a2.5,2.5,0,0,0,1.773,0l7.838-2.983a16.6,16.6,0,0,1,.554,4.858.845.845,0,0,1-1.156.795,12.189,12.189,0,0,0-3.907-.795,7,7,0,0,0-3.692,1.525.834.834,0,0,1-.527.187A.837.837,0,0,1-2384.985-174.4Z" transform="translate(6613.859 6139.643)" fill="#c4c4c4"/>
    </g>
  </g>
</svg>
